{"glyphs":{"0":{"ha":764,"x_min":0,"x_max":0,"o":"m 69 175 b 386 -18 122 64 257 -18 b 728 328 579 -18 728 132 l 728 597 b 699 746 728 647 715 706 b 385 944 650 858 514 944 b 163 865 310 944 228 915 b 36 597 79 801 36 710 l 36 328 b 69 175 36 279 50 217 z m 382 190 b 272 328 313 190 272 240 l 272 599 b 382 736 272 685 313 736 b 492 599 453 736 492 689 l 492 328 b 382 190 492 238 453 190 z "},"1":{"ha":764,"x_min":0,"x_max":0,"o":"m 144 926 l 144 726 l 296 726 l 296 0 l 532 0 l 532 926 z "},"2":{"ha":764,"x_min":0,"x_max":0,"o":"m 561 357 b 704 674 658 467 704 568 b 390 944 704 829 569 944 b 103 801 267 944 163 892 b 49 589 64 742 53 699 l 274 589 b 381 736 279 692 313 736 b 468 646 433 736 468 700 b 382 460 468 594 440 533 b 296 363 356 425 326 393 b 93 207 236 306 200 272 l 57 185 l 57 0 l 710 0 l 710 199 l 396 199 b 561 357 486 278 517 307 z "},"3":{"ha":760,"x_min":0,"x_max":0,"o":"m 58 156 b 372 -18 101 50 225 -18 b 715 272 561 -18 715 113 b 540 496 715 381 654 458 b 663 692 622 540 663 606 b 372 944 663 836 538 944 b 56 657 185 944 58 829 l 289 657 b 361 736 292 708 317 736 b 426 656 401 736 426 704 b 310 549 426 586 386 549 l 271 549 l 271 375 l 354 375 b 479 282 438 375 479 344 b 376 190 479 226 438 190 b 271 275 319 190 285 218 l 32 275 b 58 156 38 217 42 197 z "},"4":{"ha":764,"x_min":0,"x_max":0,"o":"m 421 0 l 649 0 l 649 163 l 750 163 l 750 349 l 649 349 l 649 926 l 428 926 l 14 336 l 14 163 l 421 163 z m 250 349 l 436 639 l 436 349 z "},"5":{"ha":764,"x_min":0,"x_max":0,"o":"m 247 354 b 368 435 269 407 313 435 b 496 313 442 435 496 382 b 371 190 496 246 438 190 b 261 249 326 190 290 210 l 24 249 b 375 -18 54 86 193 -18 b 732 318 578 -18 732 126 b 422 629 732 494 599 629 b 297 600 369 629 336 621 l 318 726 l 649 726 l 649 926 l 136 926 l 57 401 z "},"6":{"ha":764,"x_min":0,"x_max":0,"o":"m 335 926 l 104 588 b 18 339 50 508 18 414 b 383 -18 18 139 179 -18 b 744 336 590 -18 744 132 b 463 650 744 514 622 650 b 404 644 444 650 432 649 l 608 926 z m 378 442 b 507 315 451 442 507 386 b 381 190 507 244 451 190 b 251 318 308 190 251 246 b 378 442 251 389 306 442 z "},"7":{"ha":764,"x_min":0,"x_max":0,"o":"m 85 726 l 444 726 l 103 0 l 363 0 l 689 744 l 689 926 l 85 926 z "},"8":{"ha":764,"x_min":0,"x_max":0,"o":"m 664 686 b 382 944 664 833 543 944 b 99 683 219 944 99 833 b 189 510 99 611 125 561 b 44 279 99 471 44 385 b 383 -18 44 115 197 -18 b 719 279 569 -18 719 114 b 574 510 719 385 665 471 b 664 686 636 560 664 614 z m 383 753 b 467 669 429 753 467 715 b 381 582 467 621 428 582 b 296 664 333 582 296 618 l 296 668 b 383 753 296 717 335 753 z m 382 401 b 483 296 439 401 483 354 b 385 190 483 238 439 190 b 281 297 325 190 281 235 b 382 401 281 357 324 401 z "},"9":{"ha":764,"x_min":0,"x_max":0,"o":"m 444 0 l 681 367 b 746 582 729 442 746 494 b 379 944 746 793 593 944 b 19 600 174 944 19 797 b 321 278 19 415 149 278 b 383 288 344 278 356 279 l 175 0 z m 381 736 b 508 613 451 736 508 681 b 382 488 508 542 453 488 b 254 614 313 488 254 544 b 256 621 254 615 256 618 b 381 736 260 685 317 736 z "},"\u0000":{"ha":389,"x_min":0,"x_max":0,"o":""}," ":{"ha":347,"x_min":0,"x_max":0,"o":""},"!":{"ha":410,"x_min":0,"x_max":0,"o":"m 97 926 l 97 306 l 313 306 l 313 926 z m 97 213 l 97 0 l 313 0 l 313 213 z "},"\"":{"ha":567,"x_min":0,"x_max":0,"o":"m 253 926 l 57 926 l 90 554 l 219 554 z m 510 926 l 314 926 l 347 554 l 476 554 z "},"#":{"ha":833,"x_min":0,"x_max":0,"o":"m 657 413 l 675 532 l 815 532 l 839 690 l 700 690 l 738 926 l 557 926 l 519 690 l 399 690 l 436 926 l 258 926 l 219 690 l 79 690 l 56 532 l 196 532 l 176 413 l 35 413 l 11 254 l 153 254 l 111 0 l 290 0 l 331 254 l 451 254 l 411 0 l 592 0 l 632 254 l 774 254 l 799 413 z m 476 413 l 356 413 l 374 532 l 494 532 z "},"$":{"ha":764,"x_min":0,"x_max":0,"o":"m 299 1015 l 299 889 b 99 636 172 854 99 763 b 294 392 99 519 163 440 l 336 376 b 451 267 418 346 451 315 b 379 192 451 225 419 192 b 306 281 338 192 311 222 l 92 281 l 92 267 b 147 117 92 219 114 158 b 299 32 183 71 225 47 l 299 -94 l 468 -94 l 468 38 b 665 290 590 76 665 174 b 481 532 665 397 597 490 l 438 547 b 313 660 343 581 313 613 b 381 731 313 701 340 731 b 449 651 421 731 444 704 l 643 651 l 643 664 b 592 811 643 724 628 764 b 468 889 557 856 525 875 l 468 1015 z "},"%":{"ha":1111,"x_min":0,"x_max":0,"o":"m 269 496 b 496 721 399 496 496 592 b 268 944 496 849 399 944 b 42 718 138 944 42 849 b 269 496 42 590 138 496 z m 843 -18 b 1069 206 972 -18 1069 78 b 843 431 1069 335 972 431 b 615 203 711 431 615 335 b 843 -18 615 75 711 -18 z m 288 0 l 435 0 l 824 926 l 676 926 z m 269 806 b 351 721 314 806 351 768 b 269 635 351 672 315 635 b 186 721 222 635 186 672 b 269 806 186 768 222 806 z m 843 292 b 925 206 889 292 925 253 b 843 119 925 157 890 119 b 760 207 796 119 760 157 b 843 292 760 254 797 292 z "},"&":{"ha":917,"x_min":0,"x_max":0,"o":"m 607 394 l 497 504 b 626 717 588 568 626 631 b 382 944 626 846 521 944 b 125 706 238 944 125 840 b 213 506 125 628 153 565 b 156 463 190 490 172 475 b 42 250 83 404 42 331 b 351 -18 42 99 178 -18 b 493 8 399 -18 447 -10 b 628 94 547 29 572 46 l 738 -18 l 879 121 l 753 250 b 822 374 782 289 803 328 l 893 546 l 675 546 z m 489 231 b 376 181 456 194 424 181 b 269 272 314 181 269 218 b 340 381 269 310 288 338 z m 326 715 b 383 778 326 751 351 778 b 438 718 417 778 438 754 b 379 615 438 683 424 658 b 326 715 340 657 326 682 z "},"'":{"ha":310,"x_min":0,"x_max":0,"o":"m 253 926 l 57 926 l 90 554 l 219 554 z "},"(":{"ha":517,"x_min":0,"x_max":0,"o":"m 260 346 b 479 747 260 514 350 678 l 479 954 b 300 860 406 926 353 899 b 42 347 138 739 42 550 b 300 -165 42 146 138 -44 b 479 -260 353 -204 406 -232 l 479 -53 b 260 346 350 15 260 179 z "},")":{"ha":517,"x_min":0,"x_max":0,"o":"m 257 349 b 38 -53 257 181 167 15 l 38 -260 b 217 -165 111 -232 164 -204 b 475 347 379 -44 475 144 b 217 860 475 549 379 739 b 38 954 164 899 111 926 l 38 747 b 257 349 167 679 257 515 z "},"*":{"ha":764,"x_min":0,"x_max":0,"o":"m 311 751 l 151 811 l 106 674 l 271 624 l 163 486 l 279 397 l 379 542 l 481 397 l 597 486 l 493 624 l 658 674 l 610 811 l 449 751 l 457 926 l 307 926 z "},"+":{"ha":694,"x_min":0,"x_max":0,"o":"m 46 390 l 260 390 l 260 176 l 435 176 l 435 390 l 649 390 l 649 553 l 435 553 l 435 767 l 260 767 l 260 553 l 46 553 z "},",":{"ha":364,"x_min":0,"x_max":0,"o":"m 74 213 l 74 0 l 171 0 l 171 -43 b 117 -90 171 -71 149 -90 l 74 -90 l 74 -201 l 163 -201 b 290 -50 239 -201 290 -140 l 290 213 z "},"-":{"ha":351,"x_min":0,"x_max":0,"o":"m 0 444 l 0 268 l 351 268 l 351 444 z "},".":{"ha":364,"x_min":0,"x_max":0,"o":"m 74 213 l 74 0 l 290 0 l 290 213 z "},"/":{"ha":586,"x_min":0,"x_max":0,"o":"m -26 -232 l 178 -232 l 540 926 l 336 926 z "},":":{"ha":364,"x_min":0,"x_max":0,"o":"m 74 213 l 74 0 l 290 0 l 290 213 z m 74 694 l 74 482 l 290 482 l 290 694 z "},";":{"ha":364,"x_min":0,"x_max":0,"o":"m 74 213 l 74 0 l 171 0 l 171 -43 b 117 -90 171 -71 149 -90 l 74 -90 l 74 -201 l 163 -201 b 290 -50 239 -201 290 -140 l 290 213 z m 74 694 l 74 482 l 290 482 l 290 694 z "},"<":{"ha":694,"x_min":0,"x_max":0,"o":"m 46 538 l 46 390 l 649 85 l 647 257 l 232 463 l 649 668 l 649 843 z "},"=":{"ha":694,"x_min":0,"x_max":0,"o":"m 46 515 l 649 515 l 649 668 l 46 668 z m 46 276 l 649 276 l 649 429 l 46 429 z "},">":{"ha":694,"x_min":0,"x_max":0,"o":"m 649 389 l 649 538 l 46 843 l 47 669 l 463 464 l 46 258 l 46 85 z "},"?":{"ha":689,"x_min":0,"x_max":0,"o":"m 335 731 b 407 653 382 731 407 703 b 322 515 407 613 385 575 b 193 294 219 414 194 371 l 410 294 b 506 433 414 339 432 365 b 611 550 572 494 586 510 b 647 679 633 588 647 635 b 347 944 647 828 515 944 b 18 633 156 944 18 814 b 19 610 18 628 18 621 l 249 610 b 335 731 250 697 274 731 z m 193 213 l 193 0 l 410 0 l 410 213 z "},"@":{"ha":1018,"x_min":0,"x_max":0,"o":"m 647 629 b 511 697 621 671 569 697 b 268 419 381 697 268 568 b 464 201 268 296 353 201 b 636 289 533 201 599 235 b 744 213 649 244 692 213 b 972 533 864 213 972 365 b 533 942 972 768 786 942 b 46 456 261 942 46 728 b 192 108 46 324 100 194 b 538 -17 281 24 393 -17 b 821 26 640 -17 742 -1 l 793 135 b 540 92 711 106 626 92 b 385 114 481 92 432 99 b 164 453 254 158 164 297 b 540 833 164 668 328 833 b 865 533 732 833 865 710 b 814 357 865 469 847 406 b 750 313 794 329 771 313 b 718 357 729 313 718 329 b 726 418 718 368 719 381 l 778 682 l 657 683 z m 617 474 b 497 325 617 393 561 325 b 406 425 443 325 406 365 b 528 571 406 504 463 571 b 617 479 578 571 617 533 z "},"A":{"ha":917,"x_min":0,"x_max":0,"o":"m 665 0 l 922 0 l 554 926 l 367 926 l -4 0 l 250 0 l 299 135 l 621 135 z m 461 639 l 557 322 l 364 322 z "},"B":{"ha":801,"x_min":0,"x_max":0,"o":"m 372 0 b 676 81 547 0 607 15 b 761 281 731 131 761 203 b 608 496 761 389 708 463 b 715 683 678 536 715 603 b 628 875 715 758 682 832 b 364 926 579 914 518 926 l 79 926 l 79 0 z m 306 718 l 389 718 b 489 647 461 718 489 697 b 389 574 489 597 458 574 l 306 574 z m 306 376 l 417 376 b 535 296 499 376 535 353 b 417 208 535 239 493 208 l 306 208 z "},"C":{"ha":1022,"x_min":0,"x_max":0,"o":"m 525 190 b 276 465 385 190 276 310 b 524 736 276 619 383 736 b 749 574 625 736 711 674 l 996 574 b 936 721 986 635 976 657 b 525 944 846 864 697 944 b 40 465 253 944 40 733 b 528 -18 40 194 256 -18 b 996 346 754 -18 943 128 l 749 346 b 525 190 699 243 622 190 z "},"D":{"ha":919,"x_min":0,"x_max":0,"o":"m 443 0 b 879 467 706 0 879 186 b 794 753 879 581 851 674 b 682 860 764 796 725 833 b 390 926 603 910 532 926 l 79 926 l 79 0 z m 315 718 l 418 718 b 643 460 563 718 643 625 b 417 208 643 297 564 208 l 315 208 z "},"E":{"ha":651,"x_min":0,"x_max":0,"o":"m 593 0 l 593 208 l 306 208 l 306 367 l 585 367 l 585 575 l 306 575 l 306 718 l 593 718 l 593 926 l 79 926 l 79 0 z "},"F":{"ha":617,"x_min":0,"x_max":0,"o":"m 306 0 l 306 353 l 575 353 l 575 561 l 306 561 l 306 718 l 585 718 l 585 926 l 79 926 l 79 0 z "},"G":{"ha":1065,"x_min":0,"x_max":0,"o":"m 475 338 l 750 338 b 546 189 728 246 650 189 b 276 476 383 189 276 304 b 529 736 276 625 385 736 b 732 615 617 736 690 693 l 997 615 b 536 944 944 806 747 944 b 40 467 256 944 40 736 b 531 -18 40 196 256 -18 b 1026 479 813 -18 1026 196 b 1024 526 1026 494 1025 504 l 475 526 z "},"H":{"ha":932,"x_min":0,"x_max":0,"o":"m 315 0 l 315 371 l 618 371 l 618 0 l 854 0 l 854 926 l 618 926 l 618 579 l 315 579 l 315 926 l 79 926 l 79 0 z "},"I":{"ha":393,"x_min":0,"x_max":0,"o":"m 315 0 l 315 926 l 79 926 l 79 0 z "},"J":{"ha":700,"x_min":0,"x_max":0,"o":"m 394 307 b 324 190 394 222 375 190 b 251 297 276 190 256 222 l 0 297 b 22 161 0 232 4 210 b 311 -18 61 54 178 -18 b 574 103 415 -18 515 28 b 631 365 618 158 631 221 l 631 926 l 394 926 z "},"K":{"ha":838,"x_min":0,"x_max":0,"o":"m 315 0 l 315 400 l 569 0 l 847 0 l 519 464 l 828 926 l 579 926 l 315 508 l 315 926 l 79 926 l 79 0 z "},"L":{"ha":607,"x_min":0,"x_max":0,"o":"m 589 0 l 589 208 l 315 208 l 315 926 l 79 926 l 79 0 z "},"M":{"ha":1135,"x_min":0,"x_max":0,"o":"m 296 0 l 289 696 l 489 0 l 646 0 l 846 696 l 838 0 l 1056 0 l 1056 926 l 750 926 l 567 317 l 383 926 l 79 926 l 79 0 z "},"N":{"ha":939,"x_min":0,"x_max":0,"o":"m 306 0 l 296 563 l 654 0 l 860 0 l 860 926 l 633 926 l 643 343 l 282 926 l 79 926 l 79 0 z "},"O":{"ha":1057,"x_min":0,"x_max":0,"o":"m 526 -18 b 1018 463 803 -18 1018 193 b 526 944 1018 733 803 944 b 40 461 251 944 40 735 b 526 -18 40 192 253 -18 z m 529 736 b 782 461 672 736 782 617 b 532 190 782 308 672 190 b 276 465 386 190 276 308 b 529 736 276 619 385 736 z "},"P":{"ha":803,"x_min":0,"x_max":0,"o":"m 306 0 l 306 290 l 407 290 b 678 371 539 290 615 313 b 775 611 738 426 775 518 b 667 857 775 711 736 800 b 382 926 606 908 531 926 l 79 926 l 79 0 z m 306 718 l 392 718 b 549 608 501 718 549 685 b 401 500 549 535 501 500 l 306 500 z "},"Q":{"ha":1063,"x_min":0,"x_max":0,"o":"m 1046 169 b 944 203 1003 169 967 182 b 1024 458 1000 286 1024 364 b 526 944 1024 732 806 944 b 40 458 254 944 40 731 b 539 -18 40 190 258 -18 b 790 54 629 -18 710 6 b 1007 -19 833 8 913 -19 b 1065 -17 1026 -19 1036 -18 l 1065 171 b 1046 169 1057 171 1051 169 z m 628 456 b 410 533 553 508 483 533 b 278 503 364 533 333 526 b 526 736 301 647 397 736 b 788 472 678 736 788 625 b 756 335 788 424 781 396 b 628 456 706 396 683 417 z m 524 190 b 301 346 431 190 340 253 b 385 361 335 357 354 361 b 489 338 422 361 454 354 b 622 225 542 314 576 285 b 524 190 582 197 563 190 z "},"R":{"ha":814,"x_min":0,"x_max":0,"o":"m 306 0 l 306 300 l 521 0 l 792 0 l 540 315 b 771 606 681 339 771 453 b 657 860 771 707 728 800 b 372 926 594 911 529 926 l 79 926 l 79 0 z m 306 718 l 392 718 b 543 592 489 718 543 674 b 389 461 543 510 488 461 l 306 461 z "},"S":{"ha":717,"x_min":0,"x_max":0,"o":"m 610 839 b 360 944 556 904 460 944 b 35 671 178 944 35 825 b 128 479 35 597 71 525 b 239 414 160 453 197 432 b 346 369 254 407 290 393 b 444 269 415 342 444 311 b 353 181 444 219 404 181 b 257 306 294 181 257 229 l 19 306 b 19 275 19 296 19 286 b 356 -18 19 94 149 -18 b 679 265 558 -18 679 88 b 464 532 679 386 619 461 l 350 583 b 271 675 296 608 271 636 b 353 746 271 714 308 746 b 438 657 403 746 429 719 l 672 657 b 610 839 667 747 654 785 z "},"T":{"ha":621,"x_min":0,"x_max":0,"o":"m 429 0 l 429 718 l 613 718 l 613 926 l 10 926 l 10 718 l 193 718 l 193 0 z "},"U":{"ha":850,"x_min":0,"x_max":0,"o":"m 69 365 b 163 81 69 218 92 151 b 426 -18 226 15 318 -18 b 689 82 536 -18 624 15 b 781 365 756 151 781 228 l 781 926 l 544 926 l 544 365 b 426 190 544 236 513 190 b 306 365 342 190 306 243 l 306 926 l 69 926 z "},"V":{"ha":836,"x_min":0,"x_max":0,"o":"m 296 0 l 539 0 l 850 926 l 606 926 l 418 276 l 231 926 l -14 926 z "},"W":{"ha":1206,"x_min":0,"x_max":0,"o":"m 249 0 l 461 0 l 601 599 l 742 0 l 950 0 l 1196 926 l 956 926 l 829 321 l 693 926 l 511 926 l 374 324 l 250 926 l 10 926 z "},"X":{"ha":894,"x_min":0,"x_max":0,"o":"m 450 661 l 292 926 l 24 926 l 310 493 l -14 0 l 250 0 l 440 328 l 640 0 l 908 0 l 588 489 l 871 926 l 604 926 z "},"Y":{"ha":760,"x_min":0,"x_max":0,"o":"m 499 0 l 499 338 l 774 926 l 519 926 l 381 554 l 243 926 l -14 926 l 263 338 l 263 0 z "},"Z":{"ha":635,"x_min":0,"x_max":0,"o":"m 607 0 l 607 208 l 311 208 l 607 735 l 607 926 l 24 926 l 24 718 l 343 718 l 24 156 l 24 0 z "},"[":{"ha":517,"x_min":0,"x_max":0,"o":"m 410 940 b 222 869 306 922 282 914 b 83 550 124 796 83 706 l 83 65 b 131 -156 83 -35 97 -96 b 222 -256 153 -193 185 -228 b 413 -326 281 -297 321 -308 l 433 -331 l 433 -126 b 296 42 335 -122 296 -74 l 296 574 b 433 740 296 689 335 736 l 433 944 b 410 940 422 943 415 942 z "},"\\":{"ha":694,"x_min":0,"x_max":0,"o":"m 38 1042 l 464 -115 l 635 -115 l 210 1042 z "},"]":{"ha":517,"x_min":0,"x_max":0,"o":"m 107 -326 b 294 -256 211 -308 235 -299 b 433 65 393 -182 433 -90 l 433 550 b 386 769 433 650 419 711 b 294 869 364 807 332 842 b 104 942 236 913 197 929 l 83 944 l 83 740 b 221 574 182 736 221 689 l 221 42 b 83 -126 221 -74 182 -122 l 83 -331 b 107 -326 94 -328 101 -326 z "},"^":{"ha":694,"x_min":0,"x_max":0,"o":"m 347 790 l 503 467 l 686 467 l 463 931 l 232 931 l 8 467 l 192 467 z "},"_":{"ha":694,"x_min":0,"x_max":0,"o":"m 0 -224 l 694 -224 l 694 -65 l 0 -65 z "},"`":{"ha":694,"x_min":0,"x_max":0,"o":"m 124 936 l 407 754 l 478 857 l 207 1063 z "},"a":{"ha":871,"x_min":0,"x_max":0,"o":"m 606 694 l 606 621 b 394 719 567 689 500 719 b 38 347 185 719 38 567 b 390 -24 38 126 181 -24 b 606 75 501 -24 572 8 l 606 0 l 801 0 l 801 694 z m 418 524 b 593 349 519 524 593 449 b 419 171 593 246 521 171 b 246 347 322 171 246 247 b 418 524 246 447 321 524 z "},"b":{"ha":858,"x_min":0,"x_max":0,"o":"m 267 0 l 267 75 b 469 -24 338 0 386 -24 b 821 351 675 -24 821 132 b 478 718 821 564 676 718 b 278 639 393 718 328 692 l 278 926 l 69 926 l 69 0 z m 442 524 b 613 347 538 524 613 446 b 439 171 613 247 538 171 b 269 347 342 171 269 246 b 442 524 269 447 343 524 z "},"c":{"ha":797,"x_min":0,"x_max":0,"o":"m 411 171 b 246 344 315 171 246 243 b 411 524 246 449 315 524 b 563 426 479 524 536 488 l 772 426 b 404 718 736 600 586 718 b 38 349 199 718 38 557 b 410 -24 38 140 201 -24 b 774 264 585 -24 733 94 l 564 264 b 411 171 522 199 476 171 z "},"d":{"ha":865,"x_min":0,"x_max":0,"o":"m 588 926 l 588 636 b 382 718 531 692 468 718 b 38 349 185 718 38 561 b 386 -24 38 132 183 -24 b 599 74 482 -24 543 6 l 599 0 l 796 0 l 796 926 z m 424 524 b 599 350 524 524 599 449 b 421 171 599 246 524 171 b 246 349 319 171 246 246 b 424 524 246 450 321 524 z "},"e":{"ha":803,"x_min":0,"x_max":0,"o":"m 519 207 b 392 153 475 165 443 153 b 239 282 310 153 249 204 l 760 282 b 765 339 764 306 765 315 b 399 718 765 554 607 718 b 38 346 199 718 38 553 b 403 -24 38 140 200 -24 b 740 217 550 -24 676 67 l 529 217 b 519 207 525 213 521 210 z m 244 421 b 400 542 261 497 319 542 b 557 421 481 542 543 493 z "},"f":{"ha":408,"x_min":0,"x_max":0,"o":"m 296 0 l 296 538 l 385 538 l 385 694 l 296 694 l 296 722 b 360 788 296 764 319 788 l 385 788 l 385 944 l 353 944 b 153 892 256 944 203 931 b 88 731 111 858 88 800 l 88 694 l 11 694 l 11 538 l 88 538 l 88 0 z "},"g":{"ha":861,"x_min":0,"x_max":0,"o":"m 594 694 l 594 631 b 392 718 549 688 481 718 b 38 343 189 718 38 558 b 375 -24 38 139 186 -24 b 582 76 464 -24 553 19 l 582 54 b 414 -133 582 -64 521 -133 b 292 -65 353 -133 311 -110 l 51 -65 b 399 -310 71 -212 208 -310 b 731 -174 536 -310 654 -261 b 792 83 782 -114 792 -71 l 792 694 z m 415 524 b 583 344 514 524 583 449 b 414 171 583 243 513 171 b 246 350 317 171 246 247 b 415 524 246 447 319 524 z "},"h":{"ha":778,"x_min":0,"x_max":0,"o":"m 278 0 l 278 385 b 393 524 278 478 315 524 b 504 379 467 524 504 474 l 504 0 l 713 0 l 713 388 b 647 643 713 535 700 586 b 460 718 604 690 535 718 b 278 632 375 718 311 688 l 278 926 l 69 926 l 69 0 z "},"i":{"ha":347,"x_min":0,"x_max":0,"o":"m 69 694 l 69 0 l 278 0 l 278 694 z m 69 926 l 69 768 l 278 768 l 278 926 z "},"j":{"ha":347,"x_min":0,"x_max":0,"o":"m 69 694 l 69 8 b -4 -97 69 -71 51 -97 l -32 -97 l -32 -254 l 19 -254 b 224 -192 125 -254 179 -237 b 278 15 263 -151 278 -92 l 278 694 z m 69 926 l 69 768 l 278 768 l 278 926 z "},"k":{"ha":710,"x_min":0,"x_max":0,"o":"m 278 0 l 278 335 l 476 0 l 713 0 l 457 390 l 719 694 l 474 694 l 278 443 l 278 926 l 69 926 l 69 0 z "},"l":{"ha":347,"x_min":0,"x_max":0,"o":"m 278 0 l 278 926 l 69 926 l 69 0 z "},"m":{"ha":1200,"x_min":0,"x_max":0,"o":"m 278 0 l 278 379 b 394 524 278 474 318 524 b 501 379 465 524 501 474 l 501 0 l 710 0 l 710 379 b 824 524 710 474 749 524 b 926 369 897 524 926 479 l 926 0 l 1135 0 l 1135 379 b 1058 649 1135 542 1122 588 b 879 718 1011 694 950 718 b 658 594 785 718 708 675 b 457 718 613 678 547 718 b 267 621 369 718 308 686 l 267 694 l 69 694 l 69 0 z "},"n":{"ha":778,"x_min":0,"x_max":0,"o":"m 278 0 l 278 388 b 396 524 278 478 317 524 b 504 379 471 524 504 479 l 504 0 l 713 0 l 713 435 b 643 647 713 547 697 594 b 457 718 599 692 531 718 b 267 621 369 718 314 689 l 267 694 l 69 694 l 69 0 z "},"o":{"ha":826,"x_min":0,"x_max":0,"o":"m 414 -24 b 788 347 628 -24 788 135 b 413 718 788 560 628 718 b 38 343 196 718 38 560 b 414 -24 38 132 197 -24 z m 414 524 b 579 347 506 524 579 446 b 414 171 579 247 508 171 b 246 349 318 171 246 247 b 414 524 246 446 319 524 z "},"p":{"ha":865,"x_min":0,"x_max":0,"o":"m 278 -232 l 278 64 b 486 -24 333 3 397 -24 b 825 342 679 -24 825 133 b 485 718 825 561 685 718 b 265 618 386 718 319 688 l 265 694 l 69 694 l 69 -232 z m 442 524 b 617 347 542 524 617 447 b 443 171 617 247 540 171 b 268 350 344 171 268 250 b 442 524 268 446 346 524 z "},"q":{"ha":865,"x_min":0,"x_max":0,"o":"m 599 694 l 599 618 b 389 718 549 686 481 718 b 38 335 183 718 38 558 b 374 -24 38 129 181 -24 b 588 71 467 -24 528 4 l 588 -232 l 796 -232 l 796 694 z m 419 524 b 596 346 519 524 596 447 b 422 171 596 249 518 171 b 246 346 324 171 246 247 b 419 524 246 447 321 524 z "},"r":{"ha":449,"x_min":0,"x_max":0,"o":"m 276 0 l 276 383 b 440 510 276 472 321 507 l 440 718 l 435 718 b 267 621 354 718 306 689 l 267 694 l 69 694 l 69 0 z "},"s":{"ha":618,"x_min":0,"x_max":0,"o":"m 310 718 b 29 489 153 718 29 617 b 176 297 29 400 92 319 l 299 265 b 379 196 350 251 379 228 b 307 143 379 167 346 143 b 228 207 261 143 233 165 l 21 207 b 299 -24 36 64 143 -24 b 588 213 463 -24 588 78 b 556 321 588 253 576 290 b 344 431 517 376 488 392 b 238 507 269 451 238 475 b 303 551 238 533 264 551 b 363 500 340 551 358 535 l 565 500 b 310 718 553 635 456 718 z "},"t":{"ha":407,"x_min":0,"x_max":0,"o":"m 88 926 l 88 694 l -14 694 l -14 538 l 88 538 l 88 0 l 296 0 l 296 538 l 396 538 l 396 694 l 296 694 l 296 926 z "},"u":{"ha":781,"x_min":0,"x_max":0,"o":"m 503 694 l 503 307 b 385 171 503 221 460 171 b 274 307 307 171 274 211 l 274 694 l 65 694 l 65 279 b 128 64 65 168 79 121 b 331 -24 178 7 246 -24 b 514 74 422 -24 481 7 l 514 0 l 711 0 l 711 694 z "},"v":{"ha":671,"x_min":0,"x_max":0,"o":"m 469 694 l 335 261 l 201 694 l -14 694 l 236 0 l 435 0 l 685 694 z "},"w":{"ha":1046,"x_min":0,"x_max":0,"o":"m 213 0 l 406 0 l 522 449 l 640 0 l 833 0 l 1046 694 l 832 694 l 726 263 l 611 694 l 435 694 l 319 263 l 214 694 l 0 694 z "},"x":{"ha":757,"x_min":0,"x_max":0,"o":"m 378 513 l 265 694 l 17 694 l 250 372 l -14 0 l 235 0 l 378 215 l 517 0 l 771 0 l 501 372 l 735 694 l 489 694 z "},"y":{"ha":689,"x_min":0,"x_max":0,"o":"m 347 292 l 207 694 l -14 694 l 244 35 l 135 -232 l 354 -232 l 703 694 l 482 694 z "},"z":{"ha":563,"x_min":0,"x_max":0,"o":"m 540 536 l 540 694 l 24 694 l 24 538 l 315 538 l 24 143 l 24 0 l 540 0 l 540 157 l 268 157 z "},"{":{"ha":694,"x_min":0,"x_max":0,"o":"m 419 508 l 419 682 l 419 700 b 531 779 419 767 438 779 b 558 779 538 779 544 779 l 558 935 b 513 935 538 935 522 935 b 468 938 486 936 472 936 l 454 938 b 244 738 303 938 244 882 l 244 521 b 168 414 244 457 221 425 l 168 265 b 244 146 224 254 244 222 l 244 -69 b 454 -271 244 -214 303 -271 b 468 -271 460 -271 464 -271 l 513 -268 l 558 -268 l 558 -112 b 531 -112 544 -112 538 -112 b 419 -33 438 -112 419 -101 l 419 -15 l 419 158 b 336 333 419 250 400 292 b 419 508 403 379 419 414 z "},"|":{"ha":694,"x_min":0,"x_max":0,"o":"m 260 -347 l 435 -347 l 435 1042 l 260 1042 z "},"}":{"ha":694,"x_min":0,"x_max":0,"o":"m 306 158 l 306 -15 l 306 -33 b 196 -112 306 -100 288 -112 b 168 -112 188 -112 182 -112 l 168 -268 l 213 -268 l 257 -271 b 269 -271 261 -271 265 -271 b 481 -71 422 -271 481 -215 l 481 146 b 557 253 481 210 504 242 l 557 401 b 481 521 501 413 481 444 l 481 736 b 271 938 481 881 422 938 b 257 938 267 938 261 938 l 213 935 l 168 935 l 168 779 b 193 779 181 779 188 779 b 306 700 288 779 306 768 l 306 682 l 306 508 b 389 333 306 417 325 375 b 306 158 322 288 306 253 z "},"~":{"ha":926,"x_min":0,"x_max":0,"o":"m 324 865 b 440 833 349 865 358 863 b 581 794 522 803 553 794 b 672 818 613 794 643 803 b 801 979 726 846 753 879 l 701 1038 b 600 964 668 981 646 964 b 479 997 571 964 564 967 b 335 1035 408 1024 368 1035 b 136 867 240 1035 192 993 b 125 843 133 861 131 853 l 222 779 b 324 865 257 847 278 865 z "},"":{"ha":364,"x_min":0,"x_max":0,"o":"m 74 213 l 74 0 l 171 0 l 171 -43 b 117 -90 171 -71 149 -90 l 74 -90 l 74 -201 l 163 -201 b 290 -50 239 -201 290 -140 l 290 213 z "},"":{"ha":764,"x_min":0,"x_max":0,"o":"m 565 751 b 669 849 576 815 611 849 l 676 849 l 703 1015 b 651 1018 690 1018 676 1018 b 357 775 503 1018 382 921 l 350 735 l 258 735 l 232 578 l 322 578 l 250 160 b 108 13 231 47 197 13 b 86 14 100 13 97 13 l 53 -172 b 121 -179 69 -176 89 -179 b 340 -101 203 -179 283 -151 b 408 -17 368 -78 390 -49 b 465 186 435 33 444 67 l 535 578 l 625 578 l 653 735 l 563 735 z "},"":{"ha":674,"x_min":0,"x_max":0,"o":"m 74 213 l 74 0 l 171 0 l 171 -43 b 117 -90 171 -71 149 -90 l 74 -90 l 74 -201 l 163 -201 b 290 -50 239 -201 290 -140 l 290 213 z m 383 213 l 383 0 l 481 0 l 481 -43 b 426 -90 481 -71 458 -90 l 383 -90 l 383 -201 l 472 -201 b 599 -50 549 -201 599 -140 l 599 213 z "},"":{"ha":1092,"x_min":0,"x_max":0,"o":"m 74 213 l 74 0 l 290 0 l 290 213 z m 438 213 l 438 0 l 654 0 l 654 213 z m 801 213 l 801 0 l 1018 0 l 1018 213 z "},"":{"ha":764,"x_min":0,"x_max":0,"o":"m 279 926 l 279 696 l 72 696 l 72 515 l 279 515 l 279 -232 l 485 -232 l 485 515 l 692 515 l 692 696 l 485 696 l 485 926 z "},"":{"ha":764,"x_min":0,"x_max":0,"o":"m 279 926 l 279 696 l 72 696 l 72 515 l 279 515 l 279 179 l 72 179 l 72 -1 l 279 -1 l 279 -232 l 485 -232 l 485 -1 l 692 -1 l 692 179 l 485 179 l 485 515 l 692 515 l 692 696 l 485 696 l 485 926 z "},"":{"ha":694,"x_min":0,"x_max":0,"o":"m 406 778 l 601 778 l 422 985 l 278 985 l 93 778 l 290 778 l 347 858 z "},"":{"ha":1621,"x_min":0,"x_max":0,"o":"m 269 496 b 496 721 399 496 496 592 b 268 944 496 849 399 944 b 42 718 138 944 42 849 b 269 496 42 590 138 496 z m 843 -18 b 1069 206 972 -18 1069 78 b 843 431 1069 335 972 431 b 615 203 711 431 615 335 b 843 -18 615 75 711 -18 z m 288 0 l 435 0 l 824 926 l 676 926 z m 1353 -18 b 1579 206 1482 -18 1579 78 b 1351 431 1579 335 1482 431 b 1125 203 1221 431 1125 335 b 1353 -18 1125 75 1221 -18 z m 269 806 b 351 721 314 806 351 768 b 269 635 351 672 315 635 b 186 721 222 635 186 672 b 269 806 186 768 222 806 z m 843 292 b 925 206 889 292 925 253 b 843 119 925 157 890 119 b 760 207 796 119 760 157 b 843 292 760 254 797 292 z m 1353 292 b 1435 206 1397 292 1435 253 b 1353 119 1435 157 1399 119 b 1269 207 1306 119 1269 157 b 1353 292 1269 254 1306 292 z "},"":{"ha":263,"x_min":0,"x_max":0,"o":"m 46 439 l 46 279 l 207 119 l 207 303 l 143 361 l 207 418 l 207 613 z "},"":{"ha":1349,"x_min":0,"x_max":0,"o":"m 776 926 l 776 865 b 525 944 696 924 629 944 b 40 461 250 944 40 735 b 521 -18 40 194 253 -18 b 776 60 622 -18 700 6 l 776 0 l 1292 0 l 1292 208 l 1004 208 l 1004 367 l 1282 367 l 1282 575 l 1004 575 l 1004 718 l 1292 718 l 1292 926 z m 526 736 b 775 467 671 736 775 624 b 524 190 775 307 669 190 b 276 461 385 190 276 308 b 526 736 276 621 382 736 z "},"":{"ha":364,"x_min":0,"x_max":0,"o":"m 290 511 l 290 725 l 193 725 l 193 767 b 247 814 193 796 215 814 l 290 814 l 290 926 l 201 926 b 74 775 125 926 74 865 l 74 511 z "},"":{"ha":364,"x_min":0,"x_max":0,"o":"m 74 926 l 74 713 l 171 713 l 171 671 b 117 624 171 642 149 624 l 74 624 l 74 511 l 163 511 b 290 663 239 511 290 572 l 290 926 z "},"":{"ha":674,"x_min":0,"x_max":0,"o":"m 599 511 l 599 725 l 503 725 l 503 767 b 556 814 503 796 524 814 l 599 814 l 599 926 l 511 926 b 383 775 435 926 383 865 l 383 511 z m 290 511 l 290 725 l 193 725 l 193 767 b 247 814 193 796 215 814 l 290 814 l 290 926 l 201 926 b 74 775 125 926 74 865 l 74 511 z "},"":{"ha":674,"x_min":0,"x_max":0,"o":"m 74 926 l 74 713 l 171 713 l 171 671 b 117 624 171 642 149 624 l 74 624 l 74 511 l 163 511 b 290 663 239 511 290 572 l 290 926 z m 383 926 l 383 713 l 481 713 l 481 671 b 426 624 481 642 458 624 l 383 624 l 383 511 l 472 511 b 599 663 549 511 599 572 l 599 926 z "},"":{"ha":926,"x_min":0,"x_max":0,"o":"m 272 472 b 464 278 272 365 358 278 b 654 472 568 278 654 365 b 464 667 654 579 568 667 b 272 472 358 667 272 579 z "},"":{"ha":694,"x_min":0,"x_max":0,"o":"m 46 390 l 649 390 l 649 553 l 46 553 z "},"":{"ha":1065,"x_min":0,"x_max":0,"o":"m 0 444 l 0 268 l 1065 268 l 1065 444 z "},"":{"ha":694,"x_min":0,"x_max":0,"o":"m 436 932 b 332 947 403 932 386 935 b 229 964 281 960 256 964 b 89 919 189 964 146 950 l 165 807 b 260 831 210 825 232 831 b 347 817 279 831 308 826 l 388 807 b 457 799 413 801 436 799 b 606 846 508 799 557 814 l 529 954 b 436 932 488 936 469 932 z "},"":{"ha":1135,"x_min":0,"x_max":0,"o":"m 288 399 l 288 800 l 403 800 l 403 926 l 14 926 l 14 800 l 129 800 l 129 399 z m 582 399 l 578 763 l 696 399 l 800 399 l 919 763 l 914 399 l 1061 399 l 1061 926 l 860 926 l 749 594 l 635 926 l 436 926 l 436 399 z "},"":{"ha":263,"x_min":0,"x_max":0,"o":"m 217 278 l 217 439 l 56 603 l 56 419 l 119 361 l 56 304 l 56 119 z "},"":{"ha":1342,"x_min":0,"x_max":0,"o":"m 933 153 b 776 282 846 153 785 204 l 1297 282 b 1304 340 1303 308 1304 318 b 938 718 1304 551 1142 718 b 676 599 833 718 726 669 b 411 718 618 678 529 718 b 38 346 192 718 38 564 b 407 -24 38 132 193 -24 b 614 38 485 -24 561 -1 b 676 101 638 54 649 67 b 938 -24 743 14 822 -24 b 1279 217 1088 -24 1219 69 l 1068 217 b 933 153 1024 169 989 153 z m 782 421 b 939 542 796 493 860 542 b 1096 421 1018 542 1079 494 z m 414 524 b 582 347 506 524 582 443 b 415 171 582 250 507 171 b 246 349 322 171 246 250 b 414 524 246 446 321 524 z "},"":{"ha":760,"x_min":0,"x_max":0,"o":"m 499 0 l 499 338 l 774 926 l 519 926 l 381 554 l 243 926 l -14 926 l 263 338 l 263 0 z m 339 1018 l 339 1226 l 121 1226 l 121 1018 z m 639 1018 l 639 1226 l 422 1226 l 422 1018 z "}," ":{"ha":463,"x_min":0,"x_max":0,"o":""},"¡":{"ha":410,"x_min":0,"x_max":0,"o":"m 97 694 l 97 482 l 313 482 l 313 694 z m 97 389 l 97 -232 l 313 -232 l 313 389 z "},"¢":{"ha":764,"x_min":0,"x_max":0,"o":"m 296 901 l 296 769 b 74 467 161 726 74 607 b 296 171 74 329 157 217 l 296 39 l 468 39 l 468 171 b 690 407 581 194 668 288 l 471 407 b 386 364 444 376 419 364 b 279 468 326 364 279 410 b 386 575 279 528 328 575 b 475 525 425 575 457 557 l 690 525 b 460 775 679 638 583 740 l 460 901 z "},"£":{"ha":764,"x_min":0,"x_max":0,"o":"m 561 271 b 460 185 561 214 526 185 l 407 185 b 456 269 443 217 456 238 b 415 356 456 299 447 318 l 511 356 l 511 522 l 315 522 b 274 622 285 560 274 586 b 383 736 274 688 321 736 b 479 636 442 736 472 704 l 697 636 b 650 797 689 717 679 750 b 371 944 593 890 489 944 b 38 640 188 944 38 807 b 72 522 38 600 44 575 l 11 522 l 11 356 l 172 356 l 203 315 b 225 251 217 296 225 274 b 111 185 225 204 192 185 l 50 185 l 50 0 l 494 0 b 768 236 650 0 768 101 b 754 315 768 267 764 285 l 553 315 b 561 271 560 294 561 285 z "},"¤":{"ha":926,"x_min":0,"x_max":0,"o":"m 126 94 l 268 236 b 463 174 339 192 394 174 b 660 236 533 174 596 193 l 801 94 l 896 190 l 754 333 b 815 522 797 399 815 454 b 751 717 815 592 797 643 l 892 857 l 797 953 l 656 811 b 464 871 590 854 535 871 b 269 810 393 871 335 853 l 125 954 l 29 858 l 174 714 b 111 524 131 650 111 593 b 174 332 111 454 132 392 l 31 190 z m 654 522 b 464 331 654 417 569 331 b 272 522 358 331 272 417 b 464 715 272 629 357 715 b 654 522 569 715 654 629 z "},"¥":{"ha":764,"x_min":0,"x_max":0,"o":"m 269 0 l 496 0 l 496 232 l 668 232 l 668 378 l 514 378 l 561 488 l 706 488 l 706 633 l 624 633 l 749 926 l 517 926 l 383 554 l 250 926 l 15 926 l 135 647 l 58 647 l 58 501 l 199 501 l 251 378 l 96 378 l 96 232 l 269 232 z "},"§":{"ha":764,"x_min":0,"x_max":0,"o":"m 393 944 b 93 697 213 944 93 844 b 132 558 93 643 104 600 b 13 349 51 499 13 432 b 49 228 13 303 25 263 b 181 131 75 189 108 164 l 394 32 b 504 -68 479 -7 504 -29 b 390 -150 504 -115 457 -150 b 250 -43 311 -150 261 -112 l 44 -43 b 394 -339 58 -222 197 -339 b 708 -67 579 -339 708 -226 b 643 111 708 -3 689 50 l 651 118 b 751 308 728 182 751 236 b 594 517 751 406 706 467 l 367 619 b 293 694 311 644 293 663 b 381 760 293 736 325 760 b 490 688 439 760 476 735 l 694 688 b 393 944 688 838 564 944 z m 482 356 b 567 272 544 328 567 306 b 521 196 567 242 550 215 l 268 313 b 201 392 221 335 201 356 b 251 460 201 421 218 444 z "},"¨":{"ha":694,"x_min":0,"x_max":0,"o":"m 308 788 l 308 976 l 108 976 l 108 788 z m 586 788 l 586 976 l 386 976 l 386 788 z "},"©":{"ha":1038,"x_min":0,"x_max":0,"o":"m 518 944 b 38 463 253 944 38 729 b 518 -18 38 197 253 -18 b 1000 463 785 -18 1000 197 b 518 944 1000 729 785 944 z m 518 64 b 122 463 300 64 122 243 b 518 863 122 683 300 863 b 914 463 738 863 914 683 b 518 64 914 243 738 64 z m 522 299 b 369 464 436 299 369 371 b 522 626 369 557 435 626 b 661 529 585 626 638 589 l 814 529 b 522 751 793 654 664 751 b 224 464 356 751 224 625 b 525 174 224 301 356 174 b 814 393 664 174 781 263 l 661 393 b 522 299 631 331 583 299 z "},"ª":{"ha":510,"x_min":0,"x_max":0,"o":"m 333 926 l 333 894 b 224 939 313 924 276 939 b 32 742 111 939 32 857 b 222 543 32 624 110 543 b 333 588 276 543 310 557 l 333 556 l 443 556 l 443 926 z m 42 458 l 42 413 l 433 413 l 433 458 z m 236 831 b 326 742 289 831 326 793 b 238 651 326 689 289 651 b 149 740 188 651 149 690 b 236 831 149 792 186 831 z "},"«":{"ha":511,"x_min":0,"x_max":0,"o":"m 46 439 l 46 279 l 207 119 l 207 303 l 143 361 l 207 418 l 207 603 z m 274 439 l 274 279 l 435 119 l 435 303 l 369 361 l 435 418 l 435 603 z "},"¬":{"ha":694,"x_min":0,"x_max":0,"o":"m 649 0 l 649 371 l 46 371 l 46 213 l 472 213 l 472 0 z "},"­":{"ha":763,"x_min":0,"x_max":0,"o":"m 64 285 l 699 285 l 699 371 l 64 371 z "},"®":{"ha":713,"x_min":0,"x_max":0,"o":"m 63 774 b 357 479 63 611 194 479 b 651 774 519 479 651 611 b 357 1068 651 936 519 1068 b 63 774 194 1068 63 936 z m 596 774 b 357 533 596 640 489 533 b 117 774 224 533 117 640 b 357 1013 117 906 224 1013 b 596 774 489 1013 596 906 z m 325 621 l 325 714 l 394 621 l 496 621 l 410 722 b 483 819 453 732 483 771 b 343 926 483 892 439 926 l 239 926 l 239 621 z m 322 853 l 350 853 b 401 814 383 853 401 839 b 350 775 401 789 382 775 l 322 775 z "},"¯":{"ha":694,"x_min":0,"x_max":0,"o":"m 125 944 l 125 824 l 569 824 l 569 944 z "},"°":{"ha":694,"x_min":0,"x_max":0,"o":"m 347 497 b 561 708 465 497 561 592 b 347 918 561 824 465 918 b 133 708 229 918 133 824 b 347 497 133 592 229 497 z m 347 814 b 456 708 407 814 456 767 b 347 601 456 650 407 601 b 239 708 288 601 239 650 b 347 814 239 767 288 814 z "},"±":{"ha":694,"x_min":0,"x_max":0,"o":"m 46 494 l 260 494 l 260 281 l 435 281 l 435 494 l 649 494 l 649 657 l 435 657 l 435 871 l 260 871 l 260 657 l 46 657 z m 46 71 l 649 71 l 649 233 l 46 233 z "},"´":{"ha":694,"x_min":0,"x_max":0,"o":"m 217 857 l 288 754 l 571 936 l 488 1063 z "},"¶":{"ha":919,"x_min":0,"x_max":0,"o":"m 451 -128 l 451 790 l 568 790 l 568 -128 l 717 -128 l 717 790 l 818 790 l 818 926 l 357 926 b 38 681 144 926 38 844 b 286 444 38 540 138 444 b 301 446 289 444 294 446 l 301 -128 z "},"·":{"ha":240,"x_min":0,"x_max":0,"o":"m 0 592 l 0 353 l 240 353 l 240 592 z "},"¸":{"ha":694,"x_min":0,"x_max":0,"o":"m 306 0 l 254 -108 l 315 -153 b 353 -133 329 -137 338 -133 b 396 -176 378 -133 396 -151 b 347 -224 396 -204 375 -224 b 304 -189 325 -224 315 -215 l 221 -189 b 347 -296 229 -258 274 -296 b 482 -171 424 -296 482 -243 b 382 -68 482 -115 436 -68 b 354 -72 375 -68 367 -69 l 390 0 z "},"º":{"ha":510,"x_min":0,"x_max":0,"o":"m 256 543 b 456 740 371 543 456 628 b 254 938 456 854 371 938 b 53 739 139 938 53 854 b 256 543 53 626 139 543 z m 63 458 l 63 413 l 447 413 l 447 458 z m 254 831 b 340 740 303 831 340 790 b 256 651 340 690 304 651 b 169 742 206 651 169 690 b 254 831 169 792 207 831 z "},"»":{"ha":490,"x_min":0,"x_max":0,"o":"m 443 278 l 443 439 l 282 603 l 282 419 l 347 361 l 282 304 l 282 119 z m 217 278 l 217 439 l 56 603 l 56 419 l 119 361 l 56 304 l 56 119 z "},"¿":{"ha":689,"x_min":0,"x_max":0,"o":"m 354 -36 b 282 42 307 -36 282 -8 b 367 179 282 82 304 119 b 494 400 469 281 494 324 l 279 400 b 183 261 274 356 256 329 b 78 144 117 200 101 183 b 42 15 54 106 42 60 b 342 -250 42 -133 172 -250 b 669 61 532 -250 669 -119 b 669 85 669 67 669 74 l 440 85 b 354 -36 438 -3 415 -36 z m 494 482 l 494 694 l 279 694 l 279 482 z "},"À":{"ha":917,"x_min":0,"x_max":0,"o":"m 665 0 l 922 0 l 554 926 l 367 926 l -4 0 l 250 0 l 299 135 l 621 135 z m 257 1136 l 599 986 l 661 1114 l 326 1294 z m 461 639 l 557 322 l 364 322 z "},"Á":{"ha":917,"x_min":0,"x_max":0,"o":"m 665 0 l 922 0 l 554 926 l 367 926 l -4 0 l 250 0 l 299 135 l 621 135 z m 257 1114 l 318 986 l 661 1136 l 590 1294 z m 461 639 l 557 322 l 364 322 z "},"Â":{"ha":917,"x_min":0,"x_max":0,"o":"m 665 0 l 922 0 l 554 926 l 367 926 l -4 0 l 250 0 l 299 135 l 621 135 z m 522 1018 l 742 1018 l 564 1226 l 358 1226 l 176 1018 l 397 1018 l 458 1107 z m 461 639 l 557 322 l 364 322 z "},"Ã":{"ha":917,"x_min":0,"x_max":0,"o":"m 665 0 l 922 0 l 554 926 l 367 926 l -4 0 l 250 0 l 299 135 l 621 135 z m 544 1185 b 442 1200 518 1185 497 1188 b 339 1214 386 1211 365 1214 b 172 1158 283 1214 228 1196 l 269 1035 b 372 1067 319 1060 342 1067 b 463 1053 392 1067 426 1061 l 507 1043 b 575 1035 532 1038 556 1035 b 744 1092 628 1035 693 1057 l 656 1214 b 544 1185 610 1192 583 1185 z m 461 639 l 557 322 l 364 322 z "},"Ä":{"ha":917,"x_min":0,"x_max":0,"o":"m 665 0 l 922 0 l 554 926 l 367 926 l -4 0 l 250 0 l 299 135 l 621 135 z m 417 1018 l 417 1226 l 199 1226 l 199 1018 z m 718 1018 l 718 1226 l 500 1226 l 500 1018 z m 461 639 l 557 322 l 364 322 z "},"Å":{"ha":917,"x_min":0,"x_max":0,"o":"m 665 0 l 922 0 l 554 926 l 367 926 l -4 0 l 250 0 l 299 135 l 621 135 z m 299 1150 b 458 990 299 1063 369 990 b 619 1150 547 990 618 1063 b 458 1308 619 1238 547 1308 b 299 1150 369 1308 299 1238 z m 461 639 l 557 322 l 364 322 z m 517 1150 b 458 1090 517 1117 490 1090 b 401 1150 426 1090 401 1117 b 458 1210 400 1183 426 1210 b 517 1150 490 1210 517 1183 z "},"Æ":{"ha":1192,"x_min":0,"x_max":0,"o":"m 619 0 l 1135 0 l 1135 208 l 846 208 l 846 367 l 1125 367 l 1125 575 l 846 575 l 846 718 l 1135 718 l 1135 926 l 607 926 l -37 0 l 250 0 l 350 154 l 619 154 z m 446 338 l 619 590 l 619 338 z "},"Ç":{"ha":1022,"x_min":0,"x_max":0,"o":"m 561 -18 b 996 346 772 -18 946 140 l 749 346 b 525 190 699 243 622 190 b 276 465 385 190 276 310 b 524 736 276 619 383 736 b 749 574 625 736 711 674 l 996 574 b 936 721 986 635 976 657 b 525 944 846 864 697 944 b 40 465 253 944 40 733 b 454 -14 40 224 217 19 l 458 -14 l 408 -111 l 479 -154 b 519 -135 494 -139 503 -135 b 567 -181 546 -135 567 -154 b 521 -226 567 -207 547 -226 b 471 -192 493 -226 483 -218 l 374 -192 b 514 -318 382 -272 432 -318 b 667 -171 601 -318 667 -256 b 558 -62 667 -108 621 -62 b 532 -65 550 -62 544 -62 l 557 -18 z "},"È":{"ha":651,"x_min":0,"x_max":0,"o":"m 593 0 l 593 208 l 306 208 l 306 367 l 585 367 l 585 575 l 306 575 l 306 718 l 593 718 l 593 926 l 79 926 l 79 0 z m 135 1136 l 476 986 l 538 1114 l 204 1294 z "},"É":{"ha":651,"x_min":0,"x_max":0,"o":"m 593 0 l 593 208 l 306 208 l 306 367 l 585 367 l 585 575 l 306 575 l 306 718 l 593 718 l 593 926 l 79 926 l 79 0 z m 135 1114 l 196 986 l 538 1136 l 468 1294 z "},"Ê":{"ha":651,"x_min":0,"x_max":0,"o":"m 593 0 l 593 208 l 306 208 l 306 367 l 585 367 l 585 575 l 306 575 l 306 718 l 593 718 l 593 926 l 79 926 l 79 0 z m 394 1018 l 590 1018 l 411 1226 l 267 1226 l 82 1018 l 279 1018 l 336 1099 z "},"Ë":{"ha":651,"x_min":0,"x_max":0,"o":"m 593 0 l 593 208 l 306 208 l 306 367 l 585 367 l 585 575 l 306 575 l 306 718 l 593 718 l 593 926 l 79 926 l 79 0 z m 294 1018 l 294 1226 l 76 1226 l 76 1018 z m 596 1018 l 596 1226 l 378 1226 l 378 1018 z "},"Ì":{"ha":393,"x_min":0,"x_max":0,"o":"m 315 0 l 315 926 l 79 926 l 79 0 z m -6 1136 l 338 986 l 399 1114 l 65 1294 z "},"Í":{"ha":393,"x_min":0,"x_max":0,"o":"m 315 0 l 315 926 l 79 926 l 79 0 z m -6 1114 l 57 986 l 399 1136 l 328 1294 z "},"Î":{"ha":393,"x_min":0,"x_max":0,"o":"m 315 0 l 315 926 l 79 926 l 79 0 z m -10 1018 l 143 1018 l 197 1125 l 253 1018 l 403 1018 l 274 1226 l 124 1226 z "},"Ï":{"ha":393,"x_min":0,"x_max":0,"o":"m 315 0 l 315 926 l 79 926 l 79 0 z m 161 1018 l 161 1226 l 7 1226 l 7 1018 z m 386 1018 l 386 1226 l 232 1226 l 232 1018 z "},"Ñ":{"ha":939,"x_min":0,"x_max":0,"o":"m 306 0 l 296 563 l 654 0 l 860 0 l 860 926 l 633 926 l 643 343 l 282 926 l 79 926 l 79 0 z m 556 1185 b 453 1200 529 1185 508 1188 b 349 1214 397 1211 376 1214 b 183 1158 294 1214 239 1196 l 281 1035 b 383 1067 331 1060 351 1067 b 474 1053 403 1067 438 1061 l 518 1043 b 586 1035 543 1038 567 1035 b 756 1092 639 1035 703 1057 l 667 1214 b 556 1185 621 1192 594 1185 z "},"Ò":{"ha":1057,"x_min":0,"x_max":0,"o":"m 526 -18 b 1018 463 803 -18 1018 193 b 526 944 1018 733 803 944 b 40 461 251 944 40 735 b 526 -18 40 192 253 -18 z m 326 1136 l 669 986 l 731 1114 l 397 1294 z m 529 736 b 782 461 672 736 782 617 b 532 190 782 308 672 190 b 276 465 386 190 276 308 b 529 736 276 619 385 736 z "},"Ó":{"ha":1057,"x_min":0,"x_max":0,"o":"m 526 -18 b 1018 463 803 -18 1018 193 b 526 944 1018 733 803 944 b 40 461 251 944 40 735 b 526 -18 40 192 253 -18 z m 326 1114 l 389 986 l 731 1136 l 660 1294 z m 529 736 b 782 461 672 736 782 617 b 532 190 782 308 672 190 b 276 465 386 190 276 308 b 529 736 276 619 385 736 z "},"Ô":{"ha":1057,"x_min":0,"x_max":0,"o":"m 526 -18 b 1018 463 803 -18 1018 193 b 526 944 1018 733 803 944 b 40 461 251 944 40 735 b 526 -18 40 192 253 -18 z m 592 1018 l 811 1018 l 635 1226 l 429 1226 l 246 1018 l 467 1018 l 529 1107 z m 529 736 b 782 461 672 736 782 617 b 532 190 782 308 672 190 b 276 465 386 190 276 308 b 529 736 276 619 385 736 z "},"Õ":{"ha":1057,"x_min":0,"x_max":0,"o":"m 526 -18 b 1018 463 803 -18 1018 193 b 526 944 1018 733 803 944 b 40 461 251 944 40 735 b 526 -18 40 192 253 -18 z m 614 1185 b 511 1200 589 1185 567 1188 b 408 1214 457 1211 435 1214 b 243 1158 353 1214 299 1196 l 339 1035 b 442 1067 390 1060 411 1067 b 533 1053 463 1067 497 1061 l 578 1043 b 644 1035 603 1038 625 1035 b 814 1092 697 1035 763 1057 l 725 1214 b 614 1185 679 1192 654 1185 z m 529 736 b 782 461 672 736 782 617 b 532 190 782 308 672 190 b 276 465 386 190 276 308 b 529 736 276 619 385 736 z "},"Ö":{"ha":1057,"x_min":0,"x_max":0,"o":"m 526 -18 b 1018 463 803 -18 1018 193 b 526 944 1018 733 803 944 b 40 461 251 944 40 735 b 526 -18 40 192 253 -18 z m 488 1018 l 488 1226 l 269 1226 l 269 1018 z m 788 1018 l 788 1226 l 571 1226 l 571 1018 z m 529 736 b 782 461 672 736 782 617 b 532 190 782 308 672 190 b 276 465 386 190 276 308 b 529 736 276 619 385 736 z "},"×":{"ha":763,"x_min":0,"x_max":0,"o":"m 622 26 l 683 88 l 442 328 l 683 568 l 622 628 l 382 389 l 140 629 l 79 568 l 321 328 l 79 88 l 140 26 l 382 268 z "},"Ø":{"ha":1057,"x_min":0,"x_max":0,"o":"m 92 29 l 239 -79 l 317 26 l 321 24 b 526 -18 399 -10 439 -18 b 1018 463 803 -18 1018 192 b 889 790 1018 586 974 699 l 886 794 l 967 903 l 819 1008 l 738 900 b 529 944 658 938 624 944 b 40 463 251 944 40 736 b 165 138 40 338 82 228 l 168 133 z m 276 467 b 529 736 276 619 386 736 b 607 724 563 736 576 735 l 310 324 b 276 467 289 364 276 418 z m 782 461 b 531 190 782 308 672 190 b 449 203 494 190 481 192 l 746 604 b 782 461 769 558 782 511 z "},"Ù":{"ha":850,"x_min":0,"x_max":0,"o":"m 69 365 b 163 81 69 218 92 151 b 426 -18 226 15 318 -18 b 689 82 536 -18 624 15 b 781 365 756 151 781 228 l 781 926 l 544 926 l 544 365 b 426 190 544 236 513 190 b 306 365 342 190 306 243 l 306 926 l 69 926 z m 224 1136 l 565 986 l 626 1114 l 293 1294 z "},"Ú":{"ha":850,"x_min":0,"x_max":0,"o":"m 69 365 b 163 81 69 218 92 151 b 426 -18 226 15 318 -18 b 689 82 536 -18 624 15 b 781 365 756 151 781 228 l 781 926 l 544 926 l 544 365 b 426 190 544 236 513 190 b 306 365 342 190 306 243 l 306 926 l 69 926 z m 224 1114 l 285 986 l 626 1136 l 557 1294 z "},"Û":{"ha":850,"x_min":0,"x_max":0,"o":"m 69 365 b 163 81 69 218 92 151 b 426 -18 226 15 318 -18 b 689 82 536 -18 624 15 b 781 365 756 151 781 228 l 781 926 l 544 926 l 544 365 b 426 190 544 236 513 190 b 306 365 342 190 306 243 l 306 926 l 69 926 z m 489 1018 l 708 1018 l 531 1226 l 325 1226 l 142 1018 l 364 1018 l 425 1107 z "},"Ü":{"ha":850,"x_min":0,"x_max":0,"o":"m 69 365 b 163 81 69 218 92 151 b 426 -18 226 15 318 -18 b 689 82 536 -18 624 15 b 781 365 756 151 781 228 l 781 926 l 544 926 l 544 365 b 426 190 544 236 513 190 b 306 365 342 190 306 243 l 306 926 l 69 926 z m 383 1018 l 383 1226 l 165 1226 l 165 1018 z m 685 1018 l 685 1226 l 467 1226 l 467 1018 z "},"ß":{"ha":857,"x_min":0,"x_max":0,"o":"m 274 81 b 496 -24 347 3 403 -24 b 819 285 675 -24 819 114 b 625 526 819 400 739 500 b 714 689 688 569 714 617 b 419 950 714 833 582 950 b 144 828 317 950 213 904 b 65 535 82 757 65 694 l 65 0 l 274 0 z m 274 593 b 397 756 274 699 317 756 b 506 654 460 756 506 714 b 400 557 506 594 465 557 l 358 557 l 358 401 l 471 401 b 611 285 557 401 611 356 b 497 171 611 221 563 171 b 389 261 440 171 407 199 l 274 261 z "},"à":{"ha":871,"x_min":0,"x_max":0,"o":"m 606 694 l 606 621 b 394 719 567 689 500 719 b 38 347 185 719 38 567 b 390 -24 38 126 181 -24 b 606 75 501 -24 572 8 l 606 0 l 801 0 l 801 694 z m 257 936 l 540 754 l 611 857 l 339 1063 z m 418 524 b 593 349 519 524 593 449 b 419 171 593 246 521 171 b 246 347 322 171 246 247 b 418 524 246 447 321 524 z "},"á":{"ha":871,"x_min":0,"x_max":0,"o":"m 606 694 l 606 621 b 394 719 567 689 500 719 b 38 347 185 719 38 567 b 390 -24 38 126 181 -24 b 606 75 501 -24 572 8 l 606 0 l 801 0 l 801 694 z m 261 857 l 332 754 l 614 936 l 532 1063 z m 418 524 b 593 349 519 524 593 449 b 419 171 593 246 521 171 b 246 347 322 171 246 247 b 418 524 246 447 321 524 z "},"â":{"ha":871,"x_min":0,"x_max":0,"o":"m 606 694 l 606 621 b 394 719 567 689 500 719 b 38 347 185 719 38 567 b 390 -24 38 126 181 -24 b 606 75 501 -24 572 8 l 606 0 l 801 0 l 801 694 z m 481 778 l 678 778 l 497 985 l 353 985 l 168 778 l 367 778 l 424 858 z m 418 524 b 593 349 519 524 593 449 b 419 171 593 246 521 171 b 246 347 322 171 246 247 b 418 524 246 447 321 524 z "},"ã":{"ha":871,"x_min":0,"x_max":0,"o":"m 606 694 l 606 621 b 394 719 567 689 500 719 b 38 347 185 719 38 567 b 390 -24 38 126 181 -24 b 606 75 501 -24 572 8 l 606 0 l 801 0 l 801 694 z m 513 935 b 418 947 482 935 469 938 b 322 960 372 957 347 960 b 176 911 279 960 236 944 l 257 800 b 356 828 303 821 326 828 b 438 817 375 828 403 824 l 478 808 b 540 801 500 804 521 801 b 694 854 593 801 644 819 l 615 960 b 513 935 569 940 551 935 z m 418 524 b 593 349 519 524 593 449 b 419 171 593 246 521 171 b 246 347 322 171 246 247 b 418 524 246 447 321 524 z "},"ä":{"ha":871,"x_min":0,"x_max":0,"o":"m 606 694 l 606 621 b 394 719 567 689 500 719 b 38 347 185 719 38 567 b 390 -24 38 126 181 -24 b 606 75 501 -24 572 8 l 606 0 l 801 0 l 801 694 z m 408 788 l 408 976 l 210 976 l 210 788 z m 686 788 l 686 976 l 488 976 l 488 788 z m 418 524 b 593 349 519 524 593 449 b 419 171 593 246 521 171 b 246 347 322 171 246 247 b 418 524 246 447 321 524 z "},"å":{"ha":871,"x_min":0,"x_max":0,"o":"m 606 694 l 606 621 b 394 719 567 689 500 719 b 38 347 185 719 38 567 b 390 -24 38 126 181 -24 b 606 75 501 -24 572 8 l 606 0 l 801 0 l 801 694 z m 278 919 b 433 764 278 833 347 764 b 590 919 519 764 590 833 b 433 1074 590 1004 521 1074 b 278 919 347 1074 278 1004 z m 418 524 b 593 349 519 524 593 449 b 419 171 593 246 521 171 b 246 347 322 171 246 247 b 418 524 246 447 321 524 z m 493 919 b 433 857 493 885 467 857 b 374 919 401 857 374 885 b 433 981 374 953 401 981 b 493 919 467 981 493 953 z "},"æ":{"ha":1360,"x_min":0,"x_max":0,"o":"m 1322 335 b 969 718 1322 550 1168 718 b 782 621 883 718 825 688 l 782 694 l 593 694 l 593 621 b 394 718 553 689 496 718 b 38 347 185 718 38 565 b 389 -24 38 126 179 -24 b 593 75 496 -24 565 10 l 593 0 l 782 0 l 782 75 b 969 -24 825 7 882 -24 b 1188 60 1047 -24 1124 6 b 1299 219 1238 103 1267 144 l 1089 219 b 954 153 1043 169 1010 153 b 796 282 869 153 807 203 l 1317 282 b 1322 335 1322 303 1322 310 z m 800 421 b 961 542 813 493 879 542 b 1117 421 1042 542 1094 501 z m 415 524 b 593 347 521 524 593 451 b 422 171 593 246 519 171 b 246 347 324 171 246 247 b 415 524 246 446 319 524 z "},"ç":{"ha":797,"x_min":0,"x_max":0,"o":"m 774 264 l 564 264 b 411 171 522 199 476 171 b 246 344 315 171 246 243 b 411 524 246 449 315 524 b 563 426 479 524 536 488 l 772 426 b 404 718 736 600 586 718 b 38 349 199 718 38 557 b 354 -19 38 163 171 7 l 311 -108 l 372 -153 b 410 -133 386 -137 394 -133 b 453 -176 435 -133 453 -151 b 404 -224 453 -204 433 -224 b 363 -189 382 -224 372 -215 l 278 -189 b 404 -296 288 -258 332 -296 b 539 -171 481 -296 539 -243 b 439 -68 539 -115 493 -68 b 411 -72 432 -68 424 -69 l 436 -22 b 774 264 599 -12 736 103 z "},"è":{"ha":803,"x_min":0,"x_max":0,"o":"m 519 207 b 392 153 475 165 443 153 b 239 282 310 153 249 204 l 760 282 b 765 339 764 306 765 315 b 399 718 765 554 607 718 b 38 346 199 718 38 553 b 403 -24 38 140 200 -24 b 740 217 550 -24 676 67 l 529 217 b 519 207 525 213 521 210 z m 233 936 l 517 754 l 588 857 l 317 1063 z m 244 421 b 400 542 261 497 319 542 b 557 421 481 542 543 493 z "},"é":{"ha":803,"x_min":0,"x_max":0,"o":"m 519 207 b 392 153 475 165 443 153 b 239 282 310 153 249 204 l 760 282 b 765 339 764 306 765 315 b 399 718 765 554 607 718 b 38 346 199 718 38 553 b 403 -24 38 140 200 -24 b 740 217 550 -24 676 67 l 529 217 b 519 207 525 213 521 210 z m 215 857 l 286 754 l 569 936 l 486 1063 z m 244 421 b 400 542 261 497 319 542 b 557 421 481 542 543 493 z "},"ê":{"ha":803,"x_min":0,"x_max":0,"o":"m 519 207 b 392 153 475 165 443 153 b 239 282 310 153 249 204 l 760 282 b 765 339 764 306 765 315 b 399 718 765 554 607 718 b 38 346 199 718 38 553 b 403 -24 38 140 200 -24 b 740 217 550 -24 676 67 l 529 217 b 519 207 525 213 521 210 z m 460 778 l 656 778 l 476 985 l 332 985 l 147 778 l 344 778 l 401 858 z m 244 421 b 400 542 261 497 319 542 b 557 421 481 542 543 493 z "},"ë":{"ha":803,"x_min":0,"x_max":0,"o":"m 519 207 b 392 153 475 165 443 153 b 239 282 310 153 249 204 l 760 282 b 765 339 764 306 765 315 b 399 718 765 554 607 718 b 38 346 199 718 38 553 b 403 -24 38 140 200 -24 b 740 217 550 -24 676 67 l 529 217 b 519 207 525 213 521 210 z m 368 788 l 368 976 l 168 976 l 168 788 z m 646 788 l 646 976 l 446 976 l 446 788 z m 244 421 b 400 542 261 497 319 542 b 557 421 481 542 543 493 z "},"ì":{"ha":347,"x_min":0,"x_max":0,"o":"m 69 694 l 69 0 l 278 0 l 278 694 z m -3 936 l 279 754 l 350 857 l 79 1063 z "},"í":{"ha":347,"x_min":0,"x_max":0,"o":"m 69 694 l 69 0 l 278 0 l 278 694 z m -3 857 l 68 754 l 350 936 l 268 1063 z "},"î":{"ha":347,"x_min":0,"x_max":0,"o":"m 69 694 l 69 0 l 278 0 l 278 694 z m -3 778 l 125 778 l 174 876 l 224 778 l 350 778 l 225 985 l 125 985 z "},"ï":{"ha":347,"x_min":0,"x_max":0,"o":"m 69 694 l 69 0 l 278 0 l 278 694 z m 140 796 l 140 967 l 1 967 l 1 796 z m 346 796 l 346 967 l 207 967 l 207 796 z "},"ñ":{"ha":778,"x_min":0,"x_max":0,"o":"m 278 0 l 278 388 b 396 524 278 478 317 524 b 504 379 471 524 504 479 l 504 0 l 713 0 l 713 435 b 643 647 713 547 697 594 b 457 718 599 692 531 718 b 267 621 369 718 314 689 l 267 694 l 69 694 l 69 0 z m 465 935 b 371 947 435 935 424 936 b 276 960 325 956 300 960 b 129 911 232 960 189 944 l 210 800 b 310 828 256 821 279 828 b 392 817 328 828 356 825 l 431 808 b 493 801 454 803 475 801 b 649 854 547 801 599 819 l 568 960 b 465 935 524 940 506 935 z "},"ò":{"ha":826,"x_min":0,"x_max":0,"o":"m 414 -24 b 788 347 628 -24 788 135 b 413 718 788 560 628 718 b 38 343 196 718 38 560 b 414 -24 38 132 197 -24 z m 246 936 l 528 754 l 599 857 l 328 1063 z m 414 524 b 579 347 506 524 579 446 b 414 171 579 247 508 171 b 246 349 318 171 246 247 b 414 524 246 446 319 524 z "},"ó":{"ha":826,"x_min":0,"x_max":0,"o":"m 414 -24 b 788 347 628 -24 788 135 b 413 718 788 560 628 718 b 38 343 196 718 38 560 b 414 -24 38 132 197 -24 z m 226 857 l 297 754 l 581 936 l 499 1063 z m 414 524 b 579 347 506 524 579 446 b 414 171 579 247 508 171 b 246 349 318 171 246 247 b 414 524 246 446 319 524 z "},"ô":{"ha":826,"x_min":0,"x_max":0,"o":"m 414 -24 b 788 347 628 -24 788 135 b 413 718 788 560 628 718 b 38 343 196 718 38 560 b 414 -24 38 132 197 -24 z m 471 778 l 668 778 l 488 985 l 343 985 l 158 778 l 357 778 l 414 858 z m 414 524 b 579 347 506 524 579 446 b 414 171 579 247 508 171 b 246 349 318 171 246 247 b 414 524 246 446 319 524 z "},"õ":{"ha":826,"x_min":0,"x_max":0,"o":"m 414 -24 b 788 347 628 -24 788 135 b 413 718 788 560 628 718 b 38 343 196 718 38 560 b 414 -24 38 132 197 -24 z m 490 935 b 396 947 460 935 447 938 b 300 960 350 957 324 960 b 154 911 256 960 213 944 l 235 800 b 333 828 279 821 303 828 b 415 817 351 828 379 824 l 456 808 b 518 801 478 804 499 801 b 672 854 571 801 622 819 l 592 960 b 490 935 547 940 529 935 z m 414 524 b 579 347 506 524 579 446 b 414 171 579 247 508 171 b 246 349 318 171 246 247 b 414 524 246 446 319 524 z "},"ö":{"ha":826,"x_min":0,"x_max":0,"o":"m 414 -24 b 788 347 628 -24 788 135 b 413 718 788 560 628 718 b 38 343 196 718 38 560 b 414 -24 38 132 197 -24 z m 374 788 l 374 976 l 175 976 l 175 788 z m 651 788 l 651 976 l 453 976 l 453 788 z m 414 524 b 579 347 506 524 579 446 b 414 171 579 247 508 171 b 246 349 318 171 246 247 b 414 524 246 446 319 524 z "},"÷":{"ha":694,"x_min":0,"x_max":0,"o":"m 246 708 b 347 607 246 653 292 607 b 449 708 403 607 449 653 b 347 810 449 764 403 810 b 246 708 290 810 246 764 z m 246 233 b 347 133 246 179 292 133 b 449 233 403 133 449 179 b 347 335 449 290 403 335 b 246 233 290 335 246 290 z m 46 390 l 649 390 l 649 553 l 46 553 z "},"ø":{"ha":826,"x_min":0,"x_max":0,"o":"m 415 718 b 38 346 197 718 38 561 b 126 99 38 251 68 165 l 50 -4 l 182 -104 l 263 6 b 414 -24 325 -18 351 -24 b 788 346 628 -24 788 135 b 699 592 788 439 760 518 l 776 696 l 643 792 l 567 689 b 415 718 506 713 479 718 z m 246 347 b 414 524 246 446 319 524 b 449 519 426 524 433 522 l 263 271 b 246 347 249 304 246 318 z m 579 349 b 413 171 579 247 508 171 b 382 175 401 171 396 172 l 565 421 b 579 349 576 390 579 376 z "},"ù":{"ha":781,"x_min":0,"x_max":0,"o":"m 503 694 l 503 307 b 385 171 503 221 460 171 b 274 307 307 171 274 211 l 274 694 l 65 694 l 65 279 b 128 64 65 168 79 121 b 331 -24 178 7 246 -24 b 514 74 422 -24 481 7 l 514 0 l 711 0 l 711 694 z m 222 936 l 506 754 l 576 857 l 306 1063 z "},"ú":{"ha":781,"x_min":0,"x_max":0,"o":"m 503 694 l 503 307 b 385 171 503 221 460 171 b 274 307 307 171 274 211 l 274 694 l 65 694 l 65 279 b 128 64 65 168 79 121 b 331 -24 178 7 246 -24 b 514 74 422 -24 481 7 l 514 0 l 711 0 l 711 694 z m 204 857 l 275 754 l 558 936 l 475 1063 z "},"û":{"ha":781,"x_min":0,"x_max":0,"o":"m 503 694 l 503 307 b 385 171 503 221 460 171 b 274 307 307 171 274 211 l 274 694 l 65 694 l 65 279 b 128 64 65 168 79 121 b 331 -24 178 7 246 -24 b 514 74 422 -24 481 7 l 514 0 l 711 0 l 711 694 z m 449 778 l 644 778 l 465 985 l 321 985 l 136 778 l 333 778 l 390 858 z "},"ü":{"ha":781,"x_min":0,"x_max":0,"o":"m 503 694 l 503 307 b 385 171 503 221 460 171 b 274 307 307 171 274 211 l 274 694 l 65 694 l 65 279 b 128 64 65 168 79 121 b 331 -24 178 7 246 -24 b 514 74 422 -24 481 7 l 514 0 l 711 0 l 711 694 z m 349 788 l 349 976 l 150 976 l 150 788 z m 626 788 l 626 976 l 428 976 l 428 788 z "},"ÿ":{"ha":689,"x_min":0,"x_max":0,"o":"m 347 292 l 207 694 l -14 694 l 244 35 l 135 -232 l 354 -232 l 703 694 l 482 694 z m 306 788 l 306 976 l 106 976 l 106 788 z m 583 788 l 583 976 l 383 976 l 383 788 z "}}}
